<svg xmlns="http://www.w3.org/2000/svg" width="22" height="22" viewBox="0 0 22 22" fill="black">
  <!-- Lobster claw silhouette - simple, clean, recognizable at 16-22px -->
  <!-- Left pincer -->
  <path d="M4 3C2.5 3 1 4.5 1 6.5C1 8.5 2.5 10 4 10L6 10C6 10 5 8 5 6.5C5 5 6 3 4 3Z"/>
  <!-- Right pincer (larger) -->
  <path d="M9 2C7 2 5.5 4 5.5 6.5C5.5 9 7 11 9 11L12 11C14 11 16 9 16 6.5C16 4 14 2 12 2L9 2ZM9 4.5C9 3.5 9.8 3.5 10.5 3.5C11.2 3.5 12 3.5 12 4.5C12 5.5 11.2 6 10.5 6C9.8 6 9 5.5 9 4.5Z"/>
  <!-- Body/tail -->
  <path d="M8 11L8 14C8 14 7 15 7 16.5C7 18 8 19 9.5 19L12.5 19C14 19 15 18 15 16.5C15 15 14 14 14 14L14 11Z"/>
  <!-- Tail fan -->
  <path d="M7.5 19L6 21L9 20.5L11 21.5L13 20.5L16 21L14.5 19Z"/>
</svg>
